<svg xmlns="http://www.w3.org/2000/svg" width="48" height="48" viewBox="0 0 48 48">
  <g id="Group_315" data-name="Group 315" transform="translate(-3937 -165)">
    <circle id="Ellipse_13" data-name="Ellipse 13" cx="24" cy="24" r="24" transform="translate(3937 165)" fill="#fff" opacity="0.74"/>
    <path id="Icon_awesome-camera" data-name="Icon awesome-camera" d="M28.44,8.471v16a2.667,2.667,0,0,1-2.666,2.666H2.666A2.667,2.667,0,0,1,0,24.469v-16A2.667,2.667,0,0,1,2.666,5.805H7.554l.683-1.828A2.663,2.663,0,0,1,10.732,2.25H17.7A2.663,2.663,0,0,1,20.2,3.978l.689,1.828h4.888A2.667,2.667,0,0,1,28.44,8.471Zm-7.554,8a6.666,6.666,0,1,0-6.666,6.666A6.671,6.671,0,0,0,20.886,16.47Zm-1.778,0a4.888,4.888,0,1,1-4.888-4.888A4.9,4.9,0,0,1,19.108,16.47Z" transform="translate(3947 174.75)"/>
  </g>
</svg>
