<svg xmlns="http://www.w3.org/2000/svg" width="33.034" height="26.427" viewBox="0 0 33.034 26.427">
  <path id="Icon_awesome-user-plus" data-name="Icon awesome-user-plus" d="M32.208,10.736H28.9v-3.3a.828.828,0,0,0-.826-.826H26.427a.828.828,0,0,0-.826.826v3.3H22.3a.828.828,0,0,0-.826.826v1.652a.828.828,0,0,0,.826.826h3.3v3.3a.828.828,0,0,0,.826.826h1.652a.828.828,0,0,0,.826-.826v-3.3h3.3a.828.828,0,0,0,.826-.826V11.562A.828.828,0,0,0,32.208,10.736ZM11.562,13.214A6.607,6.607,0,1,0,4.955,6.607,6.606,6.606,0,0,0,11.562,13.214Zm4.625,1.652h-.862a8.985,8.985,0,0,1-7.526,0H6.937A6.939,6.939,0,0,0,0,21.8V23.95a2.478,2.478,0,0,0,2.478,2.478H20.646a2.478,2.478,0,0,0,2.478-2.478V21.8A6.939,6.939,0,0,0,16.187,14.865Z" fill="#fff"/>
</svg>
