<svg xmlns="http://www.w3.org/2000/svg" width="16.943" height="16.943" viewBox="0 0 16.943 16.943">
  <path id="Icon_awesome-phone-alt" data-name="Icon awesome-phone-alt" d="M16.46,11.973l-3.706-1.588a.794.794,0,0,0-.927.228l-1.641,2.005A12.266,12.266,0,0,1,4.322,6.755L6.327,5.113a.792.792,0,0,0,.228-.927L4.967.48a.8.8,0,0,0-.91-.46L.616.815A.794.794,0,0,0,0,1.589,15.353,15.353,0,0,0,15.355,16.943a.794.794,0,0,0,.774-.616l.794-3.442a.8.8,0,0,0-.464-.913Z" transform="translate(0 0)" fill="#444"/>
</svg>
