<svg xmlns="http://www.w3.org/2000/svg" width="30.309" height="18.185" viewBox="0 0 30.309 18.185">
  <path id="Icon_awesome-money-bill-alt" data-name="Icon awesome-money-bill-alt" d="M16.67,15.108h-.758V10.941a.379.379,0,0,0-.379-.379H14.89a1.135,1.135,0,0,0-.63.191l-.726.484a.379.379,0,0,0-.105.525l.421.63a.379.379,0,0,0,.525.105l.022-.015v2.625h-.758a.379.379,0,0,0-.379.379v.758a.379.379,0,0,0,.379.379H16.67a.379.379,0,0,0,.379-.379v-.758A.379.379,0,0,0,16.67,15.108ZM28.793,4.5H1.515A1.516,1.516,0,0,0,0,6.015V21.17a1.516,1.516,0,0,0,1.515,1.515H28.793a1.516,1.516,0,0,0,1.515-1.515V6.015A1.516,1.516,0,0,0,28.793,4.5ZM2.273,20.412V17.381A3.031,3.031,0,0,1,5.3,20.412Zm0-10.608V6.773H5.3A3.031,3.031,0,0,1,2.273,9.8ZM15.154,18.9c-2.511,0-4.546-2.375-4.546-5.3s2.035-5.3,4.546-5.3,4.546,2.375,4.546,5.3S17.664,18.9,15.154,18.9Zm12.881,1.515H25a3.031,3.031,0,0,1,3.031-3.031Zm0-10.608A3.031,3.031,0,0,1,25,6.773h3.031Z" transform="translate(0 -4.5)" fill="#1c1c4c"/>
</svg>
