<svg xmlns="http://www.w3.org/2000/svg" width="67" height="67" viewBox="0 0 67 67">
  <path id="Icon_awesome-check-circle" data-name="Icon awesome-check-circle" d="M67.563,34.063a33.5,33.5,0,1,1-33.5-33.5A33.5,33.5,0,0,1,67.563,34.063ZM30.188,51.8,55.042,26.946a2.161,2.161,0,0,0,0-3.056l-3.056-3.056a2.161,2.161,0,0,0-3.057,0L28.659,41.1,19.2,31.639a2.161,2.161,0,0,0-3.057,0L13.083,34.7a2.161,2.161,0,0,0,0,3.056L27.131,51.8a2.161,2.161,0,0,0,3.057,0Z" transform="translate(-0.563 -0.563)" fill="#1c1c4c"/>
</svg>
