<svg xmlns="http://www.w3.org/2000/svg" width="20.741" height="17.774" viewBox="0 0 20.741 17.774">
  <path id="Icon_ionic-md-eye-off" data-name="Icon ionic-md-eye-off" d="M12.623,8.24a4.7,4.7,0,0,1,4.717,4.68A4.5,4.5,0,0,1,17,14.632l2.754,2.731a11.065,11.065,0,0,0,3.235-4.444A11.17,11.17,0,0,0,8.86,6.555L10.9,8.578A4.664,4.664,0,0,1,12.623,8.24ZM3.194,5.69,5.347,7.823l.435.43A11.012,11.012,0,0,0,2.25,12.92a11.186,11.186,0,0,0,14.5,6.23l.4.393,2.763,2.731,1.2-1.19L4.388,4.5Zm5.212,5.17,1.463,1.449a2.651,2.651,0,0,0-.074.606,2.814,2.814,0,0,0,2.828,2.8,2.66,2.66,0,0,0,.611-.074L14.7,17.095a4.692,4.692,0,0,1-6.79-4.184A4.623,4.623,0,0,1,8.406,10.86Zm4.064-.727,2.972,2.948.019-.148a2.814,2.814,0,0,0-2.828-2.8Z" transform="translate(-2.25 -4.5)" fill="#444"/>
</svg>
