<svg xmlns="http://www.w3.org/2000/svg" width="16.082" height="18.38" viewBox="0 0 16.082 18.38">
  <path id="Icon_awesome-calendar-alt" data-name="Icon awesome-calendar-alt" d="M0,16.657A1.724,1.724,0,0,0,1.723,18.38H14.359a1.724,1.724,0,0,0,1.723-1.723V6.892H0ZM11.487,9.621a.432.432,0,0,1,.431-.431h1.436a.432.432,0,0,1,.431.431v1.436a.432.432,0,0,1-.431.431H11.918a.432.432,0,0,1-.431-.431Zm0,4.595a.432.432,0,0,1,.431-.431h1.436a.432.432,0,0,1,.431.431v1.436a.432.432,0,0,1-.431.431H11.918a.432.432,0,0,1-.431-.431ZM6.892,9.621a.432.432,0,0,1,.431-.431H8.759a.432.432,0,0,1,.431.431v1.436a.432.432,0,0,1-.431.431H7.323a.432.432,0,0,1-.431-.431Zm0,4.595a.432.432,0,0,1,.431-.431H8.759a.432.432,0,0,1,.431.431v1.436a.432.432,0,0,1-.431.431H7.323a.432.432,0,0,1-.431-.431ZM2.3,9.621a.432.432,0,0,1,.431-.431H4.164a.432.432,0,0,1,.431.431v1.436a.432.432,0,0,1-.431.431H2.728a.432.432,0,0,1-.431-.431Zm0,4.595a.432.432,0,0,1,.431-.431H4.164a.432.432,0,0,1,.431.431v1.436a.432.432,0,0,1-.431.431H2.728a.432.432,0,0,1-.431-.431ZM14.359,2.3H12.636V.574A.576.576,0,0,0,12.062,0H10.913a.576.576,0,0,0-.574.574V2.3H5.744V.574A.576.576,0,0,0,5.169,0H4.021a.576.576,0,0,0-.574.574V2.3H1.723A1.724,1.724,0,0,0,0,4.021V5.744H16.082V4.021A1.724,1.724,0,0,0,14.359,2.3Z" fill="#444"/>
</svg>
