<svg id="Icon_ionic-ios-notifications" data-name="Icon ionic-ios-notifications" xmlns="http://www.w3.org/2000/svg" width="24.659" height="30.842" viewBox="0 0 24.659 30.842">
  <path id="Path_5" data-name="Path 5" d="M18.319,32.421c2.4,0,3.708-1.7,3.708-4.086H14.6C14.6,30.726,15.914,32.421,18.319,32.421Z" transform="translate(-6.005 -1.579)" fill="#fff"/>
  <path id="Path_6" data-name="Path 6" d="M31.108,26.771c-1.187-1.565-3.523-2.482-3.523-9.489,0-7.192-3.176-10.083-6.136-10.777-.278-.069-.478-.162-.478-.455V5.827a1.881,1.881,0,1,0-3.762,0V6.05c0,.285-.2.385-.478.455-2.968.7-6.136,3.584-6.136,10.777,0,7.007-2.336,7.917-3.523,9.489A1.53,1.53,0,0,0,8.3,29.222H29.89A1.53,1.53,0,0,0,31.108,26.771Z" transform="translate(-6.761 -3.93)" fill="#fff"/>
</svg>
