<svg xmlns="http://www.w3.org/2000/svg" width="37.748" height="29.354" viewBox="0 0 37.748 29.354">
  <path id="Icon_awesome-home" data-name="Icon awesome-home" d="M18.372,9.869,6.291,19.819v10.74a1.048,1.048,0,0,0,1.048,1.048l7.343-.019a1.048,1.048,0,0,0,1.043-1.048V24.268a1.048,1.048,0,0,1,1.048-1.048h4.194a1.048,1.048,0,0,1,1.048,1.048v6.267a1.048,1.048,0,0,0,1.048,1.052l7.341.02a1.048,1.048,0,0,0,1.048-1.048V19.812L19.375,9.869A.8.8,0,0,0,18.372,9.869Zm19.084,6.763-5.478-4.516V3.04a.786.786,0,0,0-.786-.786h-3.67a.786.786,0,0,0-.786.786V7.8L20.869,2.971a3.145,3.145,0,0,0-4,0L.284,16.632a.786.786,0,0,0-.1,1.107L1.85,19.771a.786.786,0,0,0,1.108.107l15.414-12.7a.8.8,0,0,1,1,0l15.415,12.7a.786.786,0,0,0,1.107-.1l1.671-2.031a.786.786,0,0,0-.111-1.109Z" transform="translate(0.001 -2.254)" fill="#fff"/>
</svg>
