<svg xmlns="http://www.w3.org/2000/svg" width="24.282" height="19.426" viewBox="0 0 24.282 19.426">
  <path id="Icon_awesome-user-plus" data-name="Icon awesome-user-plus" d="M23.675,7.892H21.247V5.464a.609.609,0,0,0-.607-.607H19.426a.609.609,0,0,0-.607.607V7.892H16.391a.609.609,0,0,0-.607.607V9.713a.609.609,0,0,0,.607.607h2.428v2.428a.609.609,0,0,0,.607.607H20.64a.609.609,0,0,0,.607-.607V10.32h2.428a.609.609,0,0,0,.607-.607V8.5A.609.609,0,0,0,23.675,7.892ZM8.5,9.713A4.856,4.856,0,1,0,3.642,4.856,4.856,4.856,0,0,0,8.5,9.713Zm3.4,1.214h-.634a6.6,6.6,0,0,1-5.532,0H5.1a5.1,5.1,0,0,0-5.1,5.1V17.6a1.822,1.822,0,0,0,1.821,1.821H15.176A1.822,1.822,0,0,0,17,17.6V16.026A5.1,5.1,0,0,0,11.9,10.927Z" fill="#1c1a4b"/>
</svg>
