<svg xmlns="http://www.w3.org/2000/svg" width="32.503" height="32.503" viewBox="0 0 32.503 32.503">
  <path id="Icon_awesome-user-circle" data-name="Icon awesome-user-circle" d="M16.251.563A16.251,16.251,0,1,0,32.5,16.814,16.249,16.249,0,0,0,16.251.563Zm0,6.291a5.767,5.767,0,1,1-5.767,5.767A5.767,5.767,0,0,1,16.251,6.853Zm0,22.542a12.557,12.557,0,0,1-9.6-4.469,7.306,7.306,0,0,1,6.455-3.919,1.6,1.6,0,0,1,.465.072,8.676,8.676,0,0,0,2.68.452,8.643,8.643,0,0,0,2.68-.452,1.6,1.6,0,0,1,.465-.072,7.306,7.306,0,0,1,6.455,3.919A12.557,12.557,0,0,1,16.251,29.4Z" transform="translate(0 -0.563)" fill="#fff"/>
</svg>
