<svg xmlns="http://www.w3.org/2000/svg" width="22.72" height="18.176" viewBox="0 0 22.72 18.176">
  <path id="Icon_awesome-user-check" data-name="Icon awesome-user-check" d="M7.952,9.088A4.544,4.544,0,1,0,3.408,4.544,4.544,4.544,0,0,0,7.952,9.088Zm3.181,1.136H10.54a6.18,6.18,0,0,1-5.176,0H4.771A4.772,4.772,0,0,0,0,15v1.477a1.7,1.7,0,0,0,1.7,1.7H14.2a1.7,1.7,0,0,0,1.7-1.7V15A4.772,4.772,0,0,0,11.133,10.224ZM22.6,5.666l-.987-1a.421.421,0,0,0-.6,0L17.3,8.357,15.68,6.731a.421.421,0,0,0-.6,0l-1,.99a.421.421,0,0,0,0,.6l2.9,2.922a.421.421,0,0,0,.6,0L22.6,6.262a.424.424,0,0,0,0-.6Z" fill="#1c1a4b"/>
</svg>
