<svg xmlns="http://www.w3.org/2000/svg" width="25.542" height="30.395" viewBox="0 0 25.542 30.395">
  <path id="Icon_awesome-apple" data-name="Icon awesome-apple" d="M21.636,18.312a6.335,6.335,0,0,1,3.393-5.754,7.291,7.291,0,0,0-5.748-3.027c-2.409-.19-5.042,1.4-6.006,1.4-1.018,0-3.352-1.337-5.184-1.337C4.305,9.66.281,12.619.281,18.638a16.913,16.913,0,0,0,.977,5.51c.869,2.49,4,8.6,7.274,8.5,1.71-.041,2.918-1.215,5.144-1.215,2.158,0,3.278,1.215,5.184,1.215,3.3-.048,6.134-5.6,6.962-8.1a6.727,6.727,0,0,1-4.187-6.236ZM17.8,7.17a6.391,6.391,0,0,0,1.629-4.92,7.2,7.2,0,0,0-4.608,2.368A6.491,6.491,0,0,0,13.079,9.5,5.7,5.7,0,0,0,17.8,7.17Z" transform="translate(-0.281 -2.25)"/>
</svg>
