<svg xmlns="http://www.w3.org/2000/svg" width="19.087" height="16.963" viewBox="0 0 19.087 16.963">
  <path id="Icon_awesome-edit" data-name="Icon awesome-edit" d="M13.341,2.761,16.33,5.75a.324.324,0,0,1,0,.457L9.093,13.444l-3.075.341a.645.645,0,0,1-.712-.712L5.647,10l7.237-7.237A.324.324,0,0,1,13.341,2.761ZM18.71,2,17.092.385a1.3,1.3,0,0,0-1.829,0L14.09,1.558a.324.324,0,0,0,0,.457L17.079,5a.324.324,0,0,0,.457,0L18.71,3.831A1.3,1.3,0,0,0,18.71,2Zm-5.985,9.474v3.373H2.121V4.245H9.736a.407.407,0,0,0,.282-.116L11.343,2.8a.4.4,0,0,0-.282-.679H1.591A1.591,1.591,0,0,0,0,3.715V15.38A1.591,1.591,0,0,0,1.591,16.97H13.255a1.591,1.591,0,0,0,1.591-1.591V10.15a.4.4,0,0,0-.679-.282l-1.326,1.326A.407.407,0,0,0,12.725,11.476Z" transform="translate(0 -0.007)" fill="#1c1c4c"/>
</svg>
