<svg xmlns="http://www.w3.org/2000/svg" width="21.752" height="20.866" viewBox="0 0 21.752 20.866">
  <path id="Icon_ionic-md-arrow-round-back" data-name="Icon ionic-md-arrow-round-back" d="M25.492,14.751H12.264L17.394,9.76a2.1,2.1,0,0,0,0-2.841,1.807,1.807,0,0,0-2.67,0L6.181,15.342a1.932,1.932,0,0,0-.556,1.408v.025a1.932,1.932,0,0,0,.556,1.408l8.536,8.423a1.807,1.807,0,0,0,2.67,0,2.1,2.1,0,0,0,0-2.841l-5.131-4.991H25.486a1.953,1.953,0,0,0,1.891-2.011A1.932,1.932,0,0,0,25.492,14.751Z" transform="translate(-5.625 -6.33)" fill="#1c1a4b"/>
</svg>
